#!OML:ASF H:\Terrain\Patient Classification 1\Walking\liu\liu.ASF
:FULLY-SPECIFIED
:DEGREES
194
root 8.13247 16.6367 -10.2548 7.02193 4.12957 -2.84012
lowerback -4.24036 1.67334 1.02329
upperback -1.50857 2.1575 3.34584
thorax 0.734507 1.08663 2.96763
lowerneck -13.5363 -6.84774 -15.9523
upperneck 13.5557 -8.85169 16.2174
head 7.88167 -3.75675 7.08493
rclavicle 1.5207e-014 4.77083e-014
rhumerus -37.103 8.94161 -78.3241
rradius 48.4929
rwrist -26.7402
rhand -36.3812 -24.1685
rfingers 7.12502
rthumb -9.47764 -53.9354
lclavicle 1.5207e-014 4.77083e-014
lhumerus -49.2625 -9.9635 95.9058
lradius 30.8252
lwrist 14.1062
lhand -12.4971 -24.9074
lfingers 7.12502
lthumb 13.5779 4.62981
rfemur -10.0033 5.73057 28.8849
rtibia 24.2486
rfoot -21.0561 1.18092
rtoes -10.186
lfemur -39.1261 5.94952 -19.8089
ltibia 44.9373
lfoot -14.8039 9.86042
ltoes -12.5941
195
root 8.13854 16.6244 -10.1259 6.9939 4.11759 -2.85329
lowerback -4.42081 1.46526 0.789099
upperback -0.855642 1.86144 3.36881
thorax 1.51117 0.931161 3.12801
lowerneck -15.9656 -6.97043 -14.9722
upperneck 14.1842 -8.86042 15.6233
head 8.44865 -3.64698 6.6831
rclavicle -7.8023e-015 -1.59028e-015
rhumerus -35.4465 8.97457 -78.2855
rradius 48.9116
rwrist -25.6538
rhand -34.9192 -26.8128
rfingers 7.12502
rthumb -8.06679 -56.6388
lclavicle -7.8023e-015 -1.59028e-015
lhumerus -48.0119 -10.0092 95.716
lradius 30.2593
lwrist 13.7203
lhand -12.9769 -24.8734
lfingers 7.12502
lthumb 13.1155 4.69421
rfemur -9.12991 5.54638 28.9852
rtibia 23.5578
rfoot -20.731 1.3995
rtoes -9.7451
lfemur -39.4934 5.46888 -19.7938
ltibia 43.0501
lfoot -14.6986 9.49004
ltoes -11.8243
196
root 8.14182 16.6233 -9.9961 6.94014 3.99008 -3.18797
lowerback -4.23646 1.50185 1.01164
upperback -1.09938 1.91267 3.50441
thorax 1.15767 0.960549 3.13486
lowerneck -15.2307 -6.8862 -15.006
upperneck 13.8893 -8.77249 15.4725
head 8.19721 -3.65369 6.649
rclavicle -1.66482e-014 3.18055e-015
rhumerus -35.6641 9.00868 -78.4231
rradius 49.098
rwrist -25.6099
rhand -34.5734 -27.6721
rfingers 7.12502
rthumb -7.73303 -57.5107
lclavicle -1.66482e-014 3.18055e-015
lhumerus -48.7369 -10.0879 96.1025
lradius 30.0625
lwrist 12.972
lhand -13.5569 -24.6596
lfingers 7.12502
lthumb 12.5563 4.94305
rfemur -8.28742 5.44278 29.4332
rtibia 22.9156
rfoot -20.4227 1.51828
rtoes -8.95291
lfemur -39.8184 5.15033 -19.3937
ltibia 41.1499
lfoot -14.5642 9.34596
ltoes -11.8851
197
root 8.14733 16.614 -9.86808 6.91568 3.81422 -3.59256
lowerback -4.50155 1.56759 1.29066
upperback -0.313118 1.94682 3.60306
thorax 2.11926 0.971061 3.10848
lowerneck -17.9421 -7.23873 -14.3504
upperneck 14.4779 -9.01932 14.9267
head 8.85888 -3.66305 6.2817
rclavicle 2.64384e-014 3.18055e-015
rhumerus -34.2837 10.3832 -79.4496
rradius 51.1854
rwrist -30.8828
rhand -39.8007 -35.3135
rfingers 7.12502
rthumb -12.7757 -64.9026
lclavicle 2.64384e-014 3.18055e-015
lhumerus -47.2268 -10.3181 95.9574
lradius 29.7024
lwrist 12.6104
lhand -13.7356 -24.4862
lfingers 7.12502
lthumb 12.384 5.12696
rfemur -7.46145 5.50736 29.9361
rtibia 22.1586
rfoot -20.2391 1.60467
rtoes -8.37197
lfemur -40.1375 4.93775 -18.8933
ltibia 39.2684
lfoot -14.4975 9.08491
ltoes -11.6385
198
root 8.15867 16.6093 -9.73064 6.86408 3.59186 -3.46454
lowerback -4.39301 1.60235 1.2054
upperback -0.882704 2.02413 3.53214
thorax 1.46848 1.01434 3.07038
lowerneck -15.9208 -6.87706 -14.6147
upperneck 14.2903 -8.72298 15.0606
head 8.40442 -3.6123 6.4416
rclavicle -2.76311e-014 -2.3059e-014
rhumerus -35.3124 9.57489 -78.9962
rradius 50.3681
rwrist -27.02
rhand -35.6713 -31.2531
rfingers 7.12502
rthumb -8.79258 -61.0499
lclavicle -2.76311e-014 -2.3059e-014
lhumerus -48.5575 -9.81577 95.905
lradius 29.5629
lwrist 11.8728
lhand -13.1519 -24.2344
lfingers 7.12502
lthumb 12.9468 5.34399
rfemur -6.32155 5.38983 29.7778
rtibia 21.1678
rfoot -20.1145 2.2688
rtoes -7.49158
lfemur -40.2584 4.67588 -18.9699
ltibia 37.4033
lfoot -14.597 8.73466
ltoes -11.8301
199
root 8.16636 16.6155 -9.59183 6.87273 3.39009 -3.3932
lowerback -4.78468 1.43934 1.05755
upperback -0.175062 1.77814 3.36623
thorax 2.42786 0.883143 2.99606
lowerneck -18.2814 -6.84652 -13.5971
upperneck 14.8394 -8.63365 14.7427
head 8.93402 -3.43915 6.15299
rclavicle -1.19271e-014 2.06736e-014
rhumerus -33.5527 9.42566 -79.2296
rradius 49.904
rwrist -25.6261
rhand -33.8481 -30.0312
rfingers 7.12502
rthumb -7.03297 -59.8943
lclavicle -1.19271e-014 2.06736e-014
lhumerus -47.1904 -9.43243 95.021
lradius 29.1628
lwrist 11.4164
lhand -12.6424 -23.9726
lfingers 7.12502
lthumb 13.4379 5.57398
rfemur -5.2134 5.46315 29.6884
rtibia 20.1847
rfoot -20.0315 2.69992
rtoes -6.17031
lfemur -40.4661 4.39844 -18.9672
ltibia 35.5243
lfoot -14.7702 8.60254
ltoes -13.1875
200
root 8.17578 16.6199 -9.45699 6.91985 3.18037 -3.62855
lowerback -4.85675 1.67969 1.43859
upperback -0.544491 2.08836 3.39381
thorax 2.08671 1.04426 2.8246
lowerneck -16.922 -6.90318 -14.4042
upperneck 14.6601 -8.74257 15.1712
head 8.70768 -3.55547 6.44026
rclavicle -1.99282e-014 -1.90833e-014
rhumerus -34.6594 9.26569 -79.2187
rradius 50.4027
rwrist -25.6888
rhand -33.8666 -30.4691
rfingers 7.12502
rthumb -7.05079 -60.3317
lclavicle -1.99282e-014 -1.90833e-014
lhumerus -48.1664 -10.2164 95.8314
lradius 28.8823
lwrist 11.747
lhand -12.6953 -23.9
lfingers 7.12502
lthumb 13.3869 5.6499
rfemur -4.32782 5.42551 29.9416
rtibia 19.1835
rfoot -19.7882 2.87158
rtoes -6.73875
lfemur -40.7405 4.11521 -18.5819
ltibia 33.5983
lfoot -14.8386 8.56326
ltoes -14.0752
